<?xml version="1.0" encoding="UTF-8" standalone="no"?>
<!-- Created with Inkscape (http://www.inkscape.org/) -->

<svg
   xmlns:dc="http://purl.org/dc/elements/1.1/"
   xmlns:cc="http://creativecommons.org/ns#"
   xmlns:rdf="http://www.w3.org/1999/02/22-rdf-syntax-ns#"
   xmlns:svg="http://www.w3.org/2000/svg"
   xmlns="http://www.w3.org/2000/svg"
   xmlns:sodipodi="http://sodipodi.sourceforge.net/DTD/sodipodi-0.dtd"
   xmlns:inkscape="http://www.inkscape.org/namespaces/inkscape"
   id="svg2"
   version="1.1"
   inkscape:version="0.48.4 r9939"
   width="293.75"
   height="188.75"
   xml:space="preserve"
   sodipodi:docname="logo_phelma.pdf"><metadata
     id="metadata8"><rdf:RDF><cc:Work
         rdf:about=""><dc:format>image/svg+xml</dc:format><dc:type
           rdf:resource="http://purl.org/dc/dcmitype/StillImage" /><dc:title></dc:title></cc:Work></rdf:RDF></metadata><defs
     id="defs6"><clipPath
       clipPathUnits="userSpaceOnUse"
       id="clipPath26"><path
         d="m 131,149.781 28,0 0,-39.781 -28,0 0,39.781 z"
         id="path28" /></clipPath><clipPath
       clipPathUnits="userSpaceOnUse"
       id="clipPath40"><path
         d="m 223,64 11.844,0 0,-46 -11.844,0 0,46 z"
         id="path42" /></clipPath></defs><sodipodi:namedview
     pagecolor="#ffffff"
     bordercolor="#666666"
     borderopacity="1"
     objecttolerance="10"
     gridtolerance="10"
     guidetolerance="10"
     inkscape:pageopacity="0"
     inkscape:pageshadow="2"
     inkscape:window-width="640"
     inkscape:window-height="480"
     id="namedview4"
     showgrid="false"
     inkscape:zoom="1.2503311"
     inkscape:cx="146.875"
     inkscape:cy="94.375"
     inkscape:window-x="0"
     inkscape:window-y="0"
     inkscape:window-maximized="0"
     inkscape:current-layer="g10" /><g
     id="g10"
     inkscape:groupmode="layer"
     inkscape:label="logo_phelma"
     transform="matrix(1.25,0,0,-1.25,0,188.75)"><g
       id="g12"><path
         d="m 185.918,83.066 c 1.48,-16.031 0.941,-32.199 -1.598,-48.046 l 8.844,-1.418 c 2.664,16.589 3.227,33.507 1.676,50.289 l -8.922,-0.825"
         style="fill:#04a1e6;fill-opacity:1;fill-rule:nonzero;stroke:none"
         id="path14" /><path
         d="m 175.262,131.086 c 2.441,-6.797 4.531,-13.828 6.207,-20.895 l 8.719,2.067 c -1.754,7.39 -3.938,14.746 -6.497,21.859 l -8.429,-3.031"
         style="fill:#04a1e6;fill-opacity:1;fill-rule:nonzero;stroke:none"
         id="path16" /><path
         d="m 136.805,18.27 c 4.777,13.05 7.199,26.777 7.199,40.8 0,7.532 -0.711,15.067 -2.109,22.395 l 7.503,1.433 c 1.489,-7.8 2.243,-15.816 2.243,-23.828 0,-14.922 -2.579,-29.535 -7.661,-43.425 l -7.175,2.625"
         style="fill:#8d188f;fill-opacity:1;fill-rule:nonzero;stroke:none"
         id="path18" /><path
         d="m 149.66,2.898 c 8.004,17.692 12.063,36.594 12.063,56.172 0,4.657 -0.235,9.352 -0.703,13.953 l 7.601,0.774 c 0.492,-4.859 0.742,-9.813 0.742,-14.727 0,-20.672 -4.289,-40.629 -12.746,-59.32 l -6.957,3.148"
         style="fill:#c02229;fill-opacity:1;fill-rule:nonzero;stroke:none"
         id="path20" /></g><g
       id="g22"><g
         id="g24"
         clip-path="url(#clipPath26)"><path
           d="m 151.594,110.758 c -5.047,12.32 -11.879,23.828 -20.301,34.211 l 5.93,4.812 c 8.894,-10.961 16.109,-23.117 21.441,-36.129 l -7.07,-2.894"
           style="fill:#f68712;fill-opacity:1;fill-rule:nonzero;stroke:none"
           id="path30" /></g></g><g
       id="g32"><path
         d="m 209.441,49.473 c 0.25,3.187 0.426,6.422 0.524,9.621 0.5,17.074 -1.27,34.066 -5.274,50.504 l 7.422,1.804 c 4.16,-17.101 6.008,-34.773 5.489,-52.535 -0.102,-3.324 -0.286,-6.687 -0.547,-10 l -7.614,0.606"
         style="fill:#80cc28;fill-opacity:1;fill-rule:nonzero;stroke:none"
         id="path34" /></g><g
       id="g36"><g
         id="g38"
         clip-path="url(#clipPath40)"><path
           d="m 234.793,63.863 -7.637,-0.172 c 0.032,-1.515 0.051,-3.07 0.051,-4.621 0,-6.996 -0.355,-14.05 -1.059,-20.968 -0.621,-6.149 -1.531,-12.34 -2.707,-18.387 l 3.75,-0.727 0,-0.004 0,0.004 3.75,-0.73 c 1.215,6.277 2.164,12.695 2.809,19.074 0.73,7.176 1.094,14.488 1.094,21.738 0,1.606 -0.016,3.219 -0.051,4.793"
           style="fill:#2250a9;fill-opacity:1;fill-rule:nonzero;stroke:none"
           id="path44" /></g></g><g
       id="g46"><path
         d="m 23.121,68.48 0,-9.96 4.996,0 c 1.445,0 2.172,0.726 2.172,2.195 l 0,5.695 c 0,1.379 -0.727,2.07 -2.172,2.07 l -4.996,0 z m -2.168,4.313 7.164,0 c 4.301,0 6.453,-2.148 6.453,-6.438 l 0,-5.554 c 0,-4.379 -2.14,-6.567 -6.425,-6.567 l -5.024,0 0,-3.57 c 0,-1.453 -0.715,-2.184 -2.141,-2.184 -1.425,0 -2.14,0.711 -2.14,2.125 l 0,20 c 0,1.457 0.703,2.188 2.113,2.188"
         style="fill:#c02229;fill-opacity:1;fill-rule:nonzero;stroke:none"
         id="path48" /><path
         d="m 37.426,56.379 0,20.008 c 0,1.422 0.711,2.133 2.14,2.133 1.426,0 2.141,-0.731 2.141,-2.188 l 0,-3.57 5.023,0 c 4.282,0 6.426,-2.188 6.426,-6.567 l 0,-9.847 c 0,-1.426 -0.715,-2.141 -2.144,-2.141 -1.426,0 -2.141,0.723 -2.141,2.172 l 0,9.902 c 0,1.469 -0.723,2.199 -2.168,2.199 l -4.996,0 0,-12.101 c 0,-1.449 -0.727,-2.172 -2.172,-2.172 -1.406,0 -2.109,0.723 -2.109,2.172"
         style="fill:#c02229;fill-opacity:1;fill-rule:nonzero;stroke:none"
         id="path50" /><path
         d="m 71.742,56.32 c 0,-1.41 -0.715,-2.113 -2.14,-2.113 l -7.172,0 c -4.282,0 -6.422,2.188 -6.422,6.566 l 0,9.848 c 0,1.43 0.715,2.141 2.14,2.141 l 11.336,0 c 1.496,0.011 2.243,-0.7 2.243,-2.125 -0.012,-1.391 -0.739,-2.098 -2.184,-2.125 l -9.25,0.011 0,-2.855 6.41,0.031 c 1.445,-0.019 2.168,-0.758 2.168,-2.215 0.008,-1.39 -0.699,-2.082 -2.129,-2.082 l -6.449,-0.015 0,-0.715 c 0,-1.457 0.727,-2.184 2.184,-2.184 l 7.168,-0.015 c 1.394,0 2.097,-0.715 2.097,-2.153"
         style="fill:#c02229;fill-opacity:1;fill-rule:nonzero;stroke:none"
         id="path52" /><path
         d="m 76.707,78.547 c 1.445,0 2.172,-0.731 2.172,-2.188 l 0,-17.812 c 1.453,0 2.168,-0.695 2.141,-2.086 0,-1.438 -0.715,-2.172 -2.141,-2.199 l -2.145,-0.028 c -1.425,0.02 -2.14,0.739 -2.14,2.153 l 0,19.972 c 0,1.457 0.703,2.188 2.113,2.188"
         style="fill:#c02229;fill-opacity:1;fill-rule:nonzero;stroke:none"
         id="path54" /><path
         d="m 101.758,72.762 c 4.285,0 6.426,-2.188 6.426,-6.567 l 0,-9.847 c 0,-1.426 -0.715,-2.141 -2.141,-2.141 -1.426,0 -2.145,0.723 -2.145,2.172 l 0,9.902 c 0,1.469 -0.726,2.199 -2.183,2.199 l -3.555,0 0.031,-12.132 c 0,-1.426 -0.714,-2.141 -2.14,-2.141 -1.43,0 -2.141,0.723 -2.141,2.172 l 0,9.902 c 0,1.469 -0.726,2.199 -2.172,2.199 l -3.539,0 0,-12.078 c 0,-1.445 -0.726,-2.168 -2.172,-2.168 -1.41,0 -2.113,0.723 -2.113,2.168 l 0,14.235 c 0,1.41 0.731,2.125 2.184,2.156 l 15.66,-0.031"
         style="fill:#c02229;fill-opacity:1;fill-rule:nonzero;stroke:none"
         id="path56" /><path
         d="m 122.43,64.242 0,4.238 -4.926,0 c -1.457,0 -2.184,-0.73 -2.184,-2.199 l 0,-2.039 7.11,0 z m 2.183,-10.035 c -1.457,0 -2.183,0.723 -2.183,2.172 l 0,3.551 -7.094,0.015 -0.016,-3.566 c 0,-1.449 -0.715,-2.172 -2.14,-2.172 -1.43,0 -2.141,0.715 -2.141,2.141 l 0,9.847 c 0,4.379 2.141,6.567 6.422,6.567 l 7.109,-0.012 c 1.426,0 2.141,-0.703 2.141,-2.113 l 0,-14.258 c 0,-1.449 -0.699,-2.172 -2.098,-2.172"
         style="fill:#c02229;fill-opacity:1;fill-rule:nonzero;stroke:none"
         id="path58" /><path
         d="m 12.301,88.758 c -1.469,-1.551 -3.293,-2.207 -5.336,-2.207 -2.012,0 -3.754,0.738 -5.086,2.07 C -0.027,90.527 0,92.676 0,96.406 c 0,3.727 -0.027,5.879 1.879,7.782 1.332,1.335 3.019,2.07 5.086,2.07 4.113,0 6.508,-2.696 7.051,-6.016 l -2.965,0 c -0.492,2.125 -1.906,3.375 -4.086,3.375 -1.141,0 -2.176,-0.465 -2.856,-1.199 -0.953,-1.031 -1.171,-2.121 -1.171,-6.012 0,-3.894 0.218,-5.008 1.171,-6.043 0.68,-0.734 1.715,-1.172 2.856,-1.172 1.281,0 2.398,0.493 3.16,1.364 0.707,0.812 0.98,1.797 0.98,3.047 l 0,1.089 -4.14,0 0,2.504 7.078,0 0,-2.968 c 0,-2.504 -0.461,-4.11 -1.742,-5.469"
         style="fill:#7b7979;fill-opacity:1;fill-rule:nonzero;stroke:none"
         id="path60" /><path
         d="m 28.359,97.273 c -0.625,0.629 -1.117,0.926 -2.07,0.926 -1.496,0 -2.746,-1.195 -2.746,-3.101 l 0,-8.383 -2.777,0 0,13.801 2.722,0 0,-1.496 c 0.707,0.976 2.125,1.66 3.676,1.66 1.332,0 2.34,-0.356 3.293,-1.309 l -2.098,-2.098"
         style="fill:#7b7979;fill-opacity:1;fill-rule:nonzero;stroke:none"
         id="path62" /><path
         d="m 42.426,96.621 c -0.438,1.035 -1.414,1.742 -2.723,1.742 -1.305,0 -2.312,-0.707 -2.75,-1.742 -0.273,-0.625 -0.324,-1.035 -0.351,-1.875 l 6.203,0 c -0.028,0.84 -0.11,1.25 -0.379,1.875 z m -5.824,-3.809 c 0,-2.367 1.25,-3.863 3.511,-3.863 1.551,0 2.367,0.434 3.344,1.414 l 1.773,-1.66 c -1.418,-1.414 -2.75,-2.152 -5.175,-2.152 -3.453,0 -6.203,1.824 -6.203,7.078 0,4.465 2.312,7.051 5.851,7.051 3.699,0 5.852,-2.723 5.852,-6.645 l 0,-1.223 -8.953,0"
         style="fill:#7b7979;fill-opacity:1;fill-rule:nonzero;stroke:none"
         id="path64" /><path
         d="m 60.359,86.715 0,8.41 c 0,2.148 -1.222,3.074 -2.773,3.074 -1.551,0 -2.859,-0.953 -2.859,-3.074 l 0,-8.41 -2.778,0 0,13.801 2.723,0 0,-1.387 c 0.953,1.031 2.285,1.551 3.676,1.551 1.414,0 2.586,-0.465 3.398,-1.254 1.063,-1.035 1.391,-2.34 1.391,-3.891 l 0,-8.82 -2.778,0"
         style="fill:#7b7979;fill-opacity:1;fill-rule:nonzero;stroke:none"
         id="path66" /><path
         d="m 77.262,97.414 c -0.516,0.516 -1.223,0.785 -2.039,0.785 -0.821,0 -1.496,-0.269 -2.016,-0.785 -0.844,-0.844 -0.953,-2.289 -0.953,-3.785 0,-1.496 0.109,-2.938 0.953,-3.785 0.52,-0.516 1.195,-0.817 2.016,-0.817 0.816,0 1.523,0.301 2.039,0.817 0.843,0.847 0.953,2.289 0.953,3.785 0,1.496 -0.11,2.941 -0.953,3.785 z m 2.097,-9.23 c -0.898,-0.922 -2.261,-1.633 -4.136,-1.633 -1.879,0 -3.215,0.711 -4.11,1.633 -1.308,1.363 -1.636,3.105 -1.636,5.445 0,2.312 0.328,4.055 1.636,5.414 0.895,0.93 2.231,1.637 4.11,1.637 1.875,0 3.238,-0.707 4.136,-1.637 1.305,-1.359 1.633,-3.102 1.633,-5.414 0,-2.34 -0.328,-4.082 -1.633,-5.445"
         style="fill:#7b7979;fill-opacity:1;fill-rule:nonzero;stroke:none"
         id="path68" /><path
         d="m 93.129,98.199 c -2.5,0 -2.883,-2.121 -2.883,-4.57 0,-2.449 0.383,-4.602 2.883,-4.602 2.504,0 2.859,2.153 2.859,4.602 0,2.449 -0.355,4.57 -2.859,4.57 z m 4.082,-10.422 c -0.762,-0.761 -1.984,-1.226 -3.375,-1.226 -1.496,0 -2.609,0.383 -3.645,1.633 l 0,-1.469 -2.722,0 0,19.379 2.777,0 0,-6.965 c 1.008,1.195 2.149,1.551 3.621,1.551 1.387,0 2.582,-0.465 3.344,-1.227 1.391,-1.387 1.555,-3.73 1.555,-5.824 0,-2.094 -0.164,-4.465 -1.555,-5.852"
         style="fill:#7b7979;fill-opacity:1;fill-rule:nonzero;stroke:none"
         id="path70" /><path
         d="m 108.945,86.715 c -2.64,0 -3.785,1.769 -3.785,3.812 l 0,15.567 2.774,0 0,-15.403 c 0,-1.062 0.382,-1.609 1.5,-1.609 l 1.226,0 0,-2.367 -1.715,0"
         style="fill:#7b7979;fill-opacity:1;fill-rule:nonzero;stroke:none"
         id="path72" /><path
         d="m 123.609,96.621 c -0.437,1.035 -1.414,1.742 -2.722,1.742 -1.305,0 -2.313,-0.707 -2.746,-1.742 -0.274,-0.625 -0.329,-1.035 -0.356,-1.875 l 6.207,0 c -0.031,0.84 -0.109,1.25 -0.383,1.875 z m -5.824,-3.809 c 0,-2.367 1.25,-3.863 3.512,-3.863 1.551,0 2.367,0.434 3.348,1.414 l 1.765,-1.66 c -1.414,-1.414 -2.746,-2.152 -5.168,-2.152 -3.457,0 -6.207,1.824 -6.207,7.078 0,4.465 2.313,7.051 5.852,7.051 3.703,0 5.851,-2.723 5.851,-6.645 l 0,-1.223 -8.953,0"
         style="fill:#7b7979;fill-opacity:1;fill-rule:nonzero;stroke:none"
         id="path74" /><path
         d="m 142.145,106.094 4.762,0 0,-19.379 -4.762,0 0,19.379 z"
         style="fill:#c02229;fill-opacity:1;fill-rule:nonzero;stroke:none"
         id="path76" /><path
         d="m 164.516,86.715 -6.207,9.746 0,-9.746 -4.762,0 0,19.379 4.164,0 6.207,-9.742 0,9.742 4.762,0 0,-19.379 -4.164,0"
         style="fill:#c02229;fill-opacity:1;fill-rule:nonzero;stroke:none"
         id="path78" /><path
         d="m 182.777,101.82 -2.691,0 0,-3.918 2.691,0 c 1.309,0 2.071,0.953 2.071,1.961 0,1.004 -0.762,1.957 -2.071,1.957 z m 0.219,-8.191 -2.91,0 0,-6.914 -4.766,0 0,19.379 7.676,0 c 4.301,0 6.613,-3.047 6.613,-6.231 0,-3.187 -2.312,-6.234 -6.613,-6.234"
         style="fill:#c02229;fill-opacity:1;fill-rule:nonzero;stroke:none"
         id="path80" /></g></g></svg>